<svg xmlns="http://www.w3.org/2000/svg" xmlns:v="https://svgstorm.com"
viewBox = "0 0 192 192"
width="400"
height="400">
<g fill="None" fill-opacity="0.0" stroke="#111012" stroke-opacity="1.00" stroke-width="0.3"><path d="
M 0.00 192.00 
L 192.00 192.00
L 192.00 0.00
L 0.00 0.00
L 0.00 192.00
M 152.00 34.00 
C 152.00 41.47 150.53 45.20 151.92 52.08 C 153.32 58.95 161.44 59.39 163.00 64.00
C 164.25 67.70 163.00 74.06 163.00 78.00
C 163.00 93.16 164.11 102.82 159.00 117.00
C 155.51 126.69 150.03 131.79 142.00 138.00
C 138.52 140.70 134.10 144.65 131.00 148.00
C 125.52 153.93 122.60 161.67 120.00 169.00
C 115.76 169.63 114.29 164.24 114.00 161.00
C 110.37 148.70 102.10 154.66 91.00 153.00 C 79.90 151.34 79.84 162.40 77.00 170.00
C 69.54 162.66 70.39 147.79 59.00 144.00
C 54.69 141.80 52.58 138.94 49.00 136.00
C 45.85 133.41 43.53 131.65 41.00 128.00
C 31.45 114.22 29.76 103.15 30.78 86.78 C 31.80 70.41 43.00 59.07 43.00 43.00
C 42.75 40.43 42.69 37.54 43.00 35.00
C 43.05 32.37 41.95 28.17 45.00 27.00
C 48.90 32.42 50.42 38.70 52.00 45.00
C 55.77 41.62 59.19 38.44 64.00 37.00
C 79.65 28.65 94.09 25.83 112.00 30.00
C 118.26 31.46 123.23 34.85 129.23 32.23 C 135.23 29.60 137.15 43.37 142.70 39.69 C 148.24 36.01 145.69 26.75 151.00 24.00
C 155.16 21.84 152.17 32.23 152.00 34.00 Z"/>
</g>
<g fill="None" fill-opacity="0.0" stroke="#6C421E" stroke-opacity="1.00" stroke-width="0.3"><path d="
M 151.00 24.00 
C 152.74 26.43 152.00 30.82 152.00 34.00
C 152.17 32.23 155.16 21.84 151.00 24.00 Z"/>
</g>
<g fill="None" fill-opacity="0.0" stroke="#EB892E" stroke-opacity="1.00" stroke-width="0.3"><path d="
M 112.00 30.00 
C 116.55 33.41 120.68 41.95 122.00 47.00
C 129.27 49.82 137.96 52.60 135.00 62.00 C 132.04 71.40 133.05 79.61 131.00 89.00
C 131.10 89.33 132.71 89.92 133.00 90.00
C 133.70 90.05 136.54 87.93 138.00 89.00
C 127.06 71.76 149.84 64.42 163.00 64.00
C 161.44 59.39 153.32 58.95 151.92 52.08 C 150.53 45.20 152.00 41.47 152.00 34.00
C 152.00 30.82 152.74 26.43 151.00 24.00
C 145.69 26.75 148.24 36.01 142.70 39.69 C 137.15 43.37 135.23 29.60 129.23 32.23 C 123.23 34.85 118.26 31.46 112.00 30.00 Z"/>
</g>
<g fill="None" fill-opacity="0.0" stroke="#87B666" stroke-opacity="1.00" stroke-width="0.3"><path d="
M 43.00 35.00 
C 42.95 37.66 43.00 40.34 43.00 43.00
C 43.00 59.07 31.80 70.41 30.78 86.78 C 29.76 103.15 31.45 114.22 41.00 128.00
C 43.38 127.23 45.31 123.71 48.00 124.00
C 36.40 109.88 31.31 84.10 46.00 71.00
C 51.81 86.18 58.20 101.30 59.00 118.00
C 62.58 118.16 64.26 114.74 68.00 115.00
C 64.70 94.89 57.68 75.34 55.00 55.00
C 59.25 52.13 63.01 48.25 68.00 47.00
C 66.00 43.88 65.61 40.27 64.00 37.00
C 59.19 38.44 55.77 41.62 52.00 45.00
C 50.42 38.70 48.90 32.42 45.00 27.00
C 41.95 28.17 43.05 32.37 43.00 35.00 Z"/>
</g>
<g fill="None" fill-opacity="0.0" stroke="#B5CB7F" stroke-opacity="1.00" stroke-width="0.3"><path d="
M 64.00 37.00 
C 65.61 40.27 66.00 43.88 68.00 47.00
C 86.44 39.04 103.71 39.91 122.00 47.00
C 120.68 41.95 116.55 33.41 112.00 30.00
C 94.09 25.83 79.65 28.65 64.00 37.00 Z"/>
</g>
<g fill="None" fill-opacity="0.0" stroke="#3E5133" stroke-opacity="1.00" stroke-width="0.3"><path d="
M 43.00 43.00 
C 43.00 40.34 42.95 37.66 43.00 35.00
C 42.69 37.54 42.75 40.43 43.00 43.00 Z"/>
</g>
<g fill="None" fill-opacity="0.0" stroke="#181719" stroke-opacity="1.00" stroke-width="0.3"><path d="
M 68.00 47.00 
C 63.01 48.25 59.25 52.13 55.00 55.00
C 57.68 75.34 64.70 94.89 68.00 115.00
C 68.08 115.49 68.00 116.00 68.00 116.00
C 70.46 119.03 69.97 123.27 71.00 127.00
C 71.82 129.99 73.83 134.30 77.00 136.00
C 78.42 133.45 79.45 130.84 80.00 128.00
C 82.19 121.99 84.89 115.72 87.00 110.00
C 91.77 97.08 90.58 81.14 99.00 70.00
C 102.38 80.78 104.47 91.99 107.00 103.00
C 109.53 113.22 113.90 123.60 117.00 134.00
C 121.03 134.08 121.13 128.99 123.00 127.00
C 126.88 115.05 128.32 101.31 131.00 89.00
C 133.05 79.61 132.04 71.40 135.00 62.00 C 137.96 52.60 129.27 49.82 122.00 47.00
C 103.71 39.91 86.44 39.04 68.00 47.00 Z"/>
</g>
<g fill="None" fill-opacity="0.0" stroke="#EDA849" stroke-opacity="1.00" stroke-width="0.3"><path d="
M 133.00 90.00 
C 135.27 90.60 137.70 90.38 140.00 91.00
C 141.27 84.06 142.62 77.19 143.00 70.00
C 151.31 73.50 149.70 85.16 150.00 93.00
C 151.61 87.95 161.18 82.94 163.00 78.00
C 163.00 74.06 164.25 67.70 163.00 64.00
C 149.84 64.42 127.06 71.76 138.00 89.00
C 136.54 87.93 133.70 90.05 133.00 90.00 Z"/>
</g>
<g fill="None" fill-opacity="0.0" stroke="#BCC584" stroke-opacity="1.00" stroke-width="0.3"><path d="
M 87.00 110.00 
C 88.43 109.00 92.48 110.12 94.00 109.00
C 94.91 106.28 96.84 103.97 97.00 101.00
C 99.39 101.97 99.32 104.91 100.00 107.00
C 100.04 107.13 101.00 107.00 101.00 107.00
C 102.78 105.56 105.08 106.02 107.00 105.00
C 107.21 104.62 107.02 103.50 107.00 103.00
C 104.47 91.99 102.38 80.78 99.00 70.00
C 90.58 81.14 91.77 97.08 87.00 110.00 Z"/>
</g>
<g fill="None" fill-opacity="0.0" stroke="#161415" stroke-opacity="1.00" stroke-width="0.3"><path d="
M 140.00 91.00 
C 137.54 104.45 134.34 117.81 131.00 131.00
C 142.95 124.60 146.56 109.94 150.00 98.00
C 150.15 96.37 150.00 94.64 150.00 93.00
C 149.70 85.16 151.31 73.50 143.00 70.00
C 142.62 77.19 141.27 84.06 140.00 91.00 Z"/>
</g>
<g fill="None" fill-opacity="0.0" stroke="#141315" stroke-opacity="1.00" stroke-width="0.3"><path d="
M 48.00 124.00 
C 55.48 133.10 59.36 127.43 59.00 118.00
C 58.20 101.30 51.81 86.18 46.00 71.00
C 31.31 84.10 36.40 109.88 48.00 124.00 Z"/>
</g>
<g fill="None" fill-opacity="0.0" stroke="#F5CA65" stroke-opacity="1.00" stroke-width="0.3"><path d="
M 150.00 93.00 
C 150.00 94.64 150.15 96.37 150.00 98.00
C 150.54 103.04 151.26 109.59 152.00 115.00
C 148.41 116.02 146.02 119.11 147.00 123.00
C 149.96 120.26 156.03 120.96 159.00 117.00
C 164.11 102.82 163.00 93.16 163.00 78.00
C 161.18 82.94 151.61 87.95 150.00 93.00 Z"/>
</g>
<g fill="None" fill-opacity="0.0" stroke="#8B8588" stroke-opacity="1.00" stroke-width="0.3"><path d="
M 123.00 127.00 
C 123.90 133.22 132.19 140.95 131.00 148.00
C 134.10 144.65 138.52 140.70 142.00 138.00
C 144.00 134.34 145.90 127.20 147.00 123.00
C 146.02 119.11 148.41 116.02 152.00 115.00
C 151.26 109.59 150.54 103.04 150.00 98.00
C 146.56 109.94 142.95 124.60 131.00 131.00
C 134.34 117.81 137.54 104.45 140.00 91.00
C 137.70 90.38 135.27 90.60 133.00 90.00
C 132.71 89.92 131.10 89.33 131.00 89.00
C 128.32 101.31 126.88 115.05 123.00 127.00 Z"/>
</g>
<g fill="None" fill-opacity="0.0" stroke="#121113" stroke-opacity="1.00" stroke-width="0.3"><path d="
M 94.00 109.00 
C 92.28 114.15 91.44 119.75 90.00 125.00
C 88.53 130.34 84.00 139.89 90.03 141.97 C 96.06 144.05 105.80 142.82 106.92 135.92 C 108.05 129.02 103.42 122.43 102.00 116.00
C 101.31 112.87 100.97 110.07 100.00 107.00
C 99.32 104.91 99.39 101.97 97.00 101.00
C 96.84 103.97 94.91 106.28 94.00 109.00 Z"/>
</g>
<g fill="None" fill-opacity="0.0" stroke="#667185" stroke-opacity="1.00" stroke-width="0.3"><path d="
M 107.00 105.00 
C 106.00 106.82 102.18 107.77 101.00 107.00
C 101.00 107.00 100.04 107.13 100.00 107.00
C 100.97 110.07 101.31 112.87 102.00 116.00
C 111.66 118.33 113.90 130.13 116.98 138.02 C 120.05 145.92 128.79 160.04 114.00 161.00
C 114.29 164.24 115.76 169.63 120.00 169.00
C 122.60 161.67 125.52 153.93 131.00 148.00
C 132.19 140.95 123.90 133.22 123.00 127.00
C 121.13 128.99 121.03 134.08 117.00 134.00
C 113.90 123.60 109.53 113.22 107.00 103.00
C 107.02 103.50 107.21 104.62 107.00 105.00 Z"/>
</g>
<g fill="None" fill-opacity="0.0" stroke="#8790B6" stroke-opacity="1.00" stroke-width="0.3"><path d="
M 101.00 107.00 
C 102.18 107.77 106.00 106.82 107.00 105.00
C 105.08 106.02 102.78 105.56 101.00 107.00 Z"/>
</g>
<g fill="None" fill-opacity="0.0" stroke="#677186" stroke-opacity="1.00" stroke-width="0.3"><path d="
M 87.00 110.00 
C 84.89 115.72 82.19 121.99 80.00 128.00
C 82.79 127.69 88.04 127.14 90.00 125.00
C 91.44 119.75 92.28 114.15 94.00 109.00
C 92.48 110.12 88.43 109.00 87.00 110.00 Z"/>
</g>
<g fill="None" fill-opacity="0.0" stroke="#898589" stroke-opacity="1.00" stroke-width="0.3"><path d="
M 59.00 118.00 
C 59.36 127.43 55.48 133.10 48.00 124.00
C 45.31 123.71 43.38 127.23 41.00 128.00
C 43.53 131.65 45.85 133.41 49.00 136.00
C 55.18 136.56 56.24 131.46 62.69 130.69 C 69.15 129.93 68.00 121.31 68.00 116.00
C 68.00 116.00 68.08 115.49 68.00 115.00
C 64.26 114.74 62.58 118.16 59.00 118.00 Z"/>
</g>
<g fill="None" fill-opacity="0.0" stroke="#667186" stroke-opacity="1.00" stroke-width="0.3"><path d="
M 49.00 136.00 
C 52.58 138.94 54.69 141.80 59.00 144.00
C 59.39 140.39 65.81 140.13 64.77 135.77 C 63.73 131.41 70.16 129.12 71.00 127.00
C 69.97 123.27 70.46 119.03 68.00 116.00
C 68.00 121.31 69.15 129.93 62.69 130.69 C 56.24 131.46 55.18 136.56 49.00 136.00 Z"/>
</g>
<g fill="None" fill-opacity="0.0" stroke="#424D74" stroke-opacity="1.00" stroke-width="0.3"><path d="
M 90.00 125.00 
C 88.04 127.14 82.79 127.69 80.00 128.00
C 79.45 130.84 78.42 133.45 77.00 136.00
C 73.83 134.30 71.82 129.99 71.00 127.00
C 70.16 129.12 63.73 131.41 64.77 135.77 C 65.81 140.13 59.39 140.39 59.00 144.00
C 70.39 147.79 69.54 162.66 77.00 170.00
C 79.84 162.40 79.90 151.34 91.00 153.00 C 102.10 154.66 110.37 148.70 114.00 161.00
C 128.79 160.04 120.05 145.92 116.98 138.02 C 113.90 130.13 111.66 118.33 102.00 116.00
C 103.42 122.43 108.05 129.02 106.92 135.92 C 105.80 142.82 96.06 144.05 90.03 141.97 C 84.00 139.89 88.53 130.34 90.00 125.00 Z"/>
</g>
<g fill="None" fill-opacity="0.0" stroke="#ED9F52" stroke-opacity="1.00" stroke-width="0.3"><path d="
M 147.00 123.00 
C 145.90 127.20 144.00 134.34 142.00 138.00
C 150.03 131.79 155.51 126.69 159.00 117.00
C 156.03 120.96 149.96 120.26 147.00 123.00 Z"/>
</g>
<g fill="#111012" fill-opacity="1.00" stroke="None">
<path d="
M 0.00 192.00 
L 192.00 192.00
L 192.00 0.00
L 0.00 0.00
L 0.00 192.00
M 152.00 34.00 
C 152.00 41.47 150.53 45.20 151.92 52.08 C 153.32 58.95 161.44 59.39 163.00 64.00
C 164.25 67.70 163.00 74.06 163.00 78.00
C 163.00 93.16 164.11 102.82 159.00 117.00
C 155.51 126.69 150.03 131.79 142.00 138.00
C 138.52 140.70 134.10 144.65 131.00 148.00
C 125.52 153.93 122.60 161.67 120.00 169.00
C 115.76 169.63 114.29 164.24 114.00 161.00
C 110.37 148.70 102.10 154.66 91.00 153.00 C 79.90 151.34 79.84 162.40 77.00 170.00
C 69.54 162.66 70.39 147.79 59.00 144.00
C 54.69 141.80 52.58 138.94 49.00 136.00
C 45.85 133.41 43.53 131.65 41.00 128.00
C 31.45 114.22 29.76 103.15 30.78 86.78 C 31.80 70.41 43.00 59.07 43.00 43.00
C 42.75 40.43 42.69 37.54 43.00 35.00
C 43.05 32.37 41.95 28.17 45.00 27.00
C 48.90 32.42 50.42 38.70 52.00 45.00
C 55.77 41.62 59.19 38.44 64.00 37.00
C 79.65 28.65 94.09 25.83 112.00 30.00
C 118.26 31.46 123.23 34.85 129.23 32.23 C 135.23 29.60 137.15 43.37 142.70 39.69 C 148.24 36.01 145.69 26.75 151.00 24.00
C 155.16 21.84 152.17 32.23 152.00 34.00 Z"/>
</g>
<g fill="#6C421E" fill-opacity="1.00" stroke="None">
<path d="
M 151.00 24.00 
C 152.74 26.43 152.00 30.82 152.00 34.00
C 152.17 32.23 155.16 21.84 151.00 24.00 Z"/>
</g>
<g fill="#EB892E" fill-opacity="1.00" stroke="None">
<path d="
M 112.00 30.00 
C 116.55 33.41 120.68 41.95 122.00 47.00
C 129.27 49.82 137.96 52.60 135.00 62.00 C 132.04 71.40 133.05 79.61 131.00 89.00
C 131.10 89.33 132.71 89.92 133.00 90.00
C 133.70 90.05 136.54 87.93 138.00 89.00
C 127.06 71.76 149.84 64.42 163.00 64.00
C 161.44 59.39 153.32 58.95 151.92 52.08 C 150.53 45.20 152.00 41.47 152.00 34.00
C 152.00 30.82 152.74 26.43 151.00 24.00
C 145.69 26.75 148.24 36.01 142.70 39.69 C 137.15 43.37 135.23 29.60 129.23 32.23 C 123.23 34.85 118.26 31.46 112.00 30.00 Z"/>
</g>
<g fill="#87B666" fill-opacity="1.00" stroke="None">
<path d="
M 43.00 35.00 
C 42.95 37.66 43.00 40.34 43.00 43.00
C 43.00 59.07 31.80 70.41 30.78 86.78 C 29.76 103.15 31.45 114.22 41.00 128.00
C 43.38 127.23 45.31 123.71 48.00 124.00
C 36.40 109.88 31.31 84.10 46.00 71.00
C 51.81 86.18 58.20 101.30 59.00 118.00
C 62.58 118.16 64.26 114.74 68.00 115.00
C 64.70 94.89 57.68 75.34 55.00 55.00
C 59.25 52.13 63.01 48.25 68.00 47.00
C 66.00 43.88 65.61 40.27 64.00 37.00
C 59.19 38.44 55.77 41.62 52.00 45.00
C 50.42 38.70 48.90 32.42 45.00 27.00
C 41.95 28.17 43.05 32.37 43.00 35.00 Z"/>
</g>
<g fill="#B5CB7F" fill-opacity="1.00" stroke="None">
<path d="
M 64.00 37.00 
C 65.61 40.27 66.00 43.88 68.00 47.00
C 86.44 39.04 103.71 39.91 122.00 47.00
C 120.68 41.95 116.55 33.41 112.00 30.00
C 94.09 25.83 79.65 28.65 64.00 37.00 Z"/>
</g>
<g fill="#3E5133" fill-opacity="1.00" stroke="None">
<path d="
M 43.00 43.00 
C 43.00 40.34 42.95 37.66 43.00 35.00
C 42.69 37.54 42.75 40.43 43.00 43.00 Z"/>
</g>
<g fill="#181719" fill-opacity="1.00" stroke="None">
<path d="
M 68.00 47.00 
C 63.01 48.25 59.25 52.13 55.00 55.00
C 57.68 75.34 64.70 94.89 68.00 115.00
C 68.08 115.49 68.00 116.00 68.00 116.00
C 70.46 119.03 69.97 123.27 71.00 127.00
C 71.82 129.99 73.83 134.30 77.00 136.00
C 78.42 133.45 79.45 130.84 80.00 128.00
C 82.19 121.99 84.89 115.72 87.00 110.00
C 91.77 97.08 90.58 81.14 99.00 70.00
C 102.38 80.78 104.47 91.99 107.00 103.00
C 109.53 113.22 113.90 123.60 117.00 134.00
C 121.03 134.08 121.13 128.99 123.00 127.00
C 126.88 115.05 128.32 101.31 131.00 89.00
C 133.05 79.61 132.04 71.40 135.00 62.00 C 137.96 52.60 129.27 49.82 122.00 47.00
C 103.71 39.91 86.44 39.04 68.00 47.00 Z"/>
</g>
<g fill="#EDA849" fill-opacity="1.00" stroke="None">
<path d="
M 133.00 90.00 
C 135.27 90.60 137.70 90.38 140.00 91.00
C 141.27 84.06 142.62 77.19 143.00 70.00
C 151.31 73.50 149.70 85.16 150.00 93.00
C 151.61 87.95 161.18 82.94 163.00 78.00
C 163.00 74.06 164.25 67.70 163.00 64.00
C 149.84 64.42 127.06 71.76 138.00 89.00
C 136.54 87.93 133.70 90.05 133.00 90.00 Z"/>
</g>
<g fill="#BCC584" fill-opacity="1.00" stroke="None">
<path d="
M 87.00 110.00 
C 88.43 109.00 92.48 110.12 94.00 109.00
C 94.91 106.28 96.84 103.97 97.00 101.00
C 99.39 101.97 99.32 104.91 100.00 107.00
C 100.04 107.13 101.00 107.00 101.00 107.00
C 102.78 105.56 105.08 106.02 107.00 105.00
C 107.21 104.62 107.02 103.50 107.00 103.00
C 104.47 91.99 102.38 80.78 99.00 70.00
C 90.58 81.14 91.77 97.08 87.00 110.00 Z"/>
</g>
<g fill="#161415" fill-opacity="1.00" stroke="None">
<path d="
M 140.00 91.00 
C 137.54 104.45 134.34 117.81 131.00 131.00
C 142.95 124.60 146.56 109.94 150.00 98.00
C 150.15 96.37 150.00 94.64 150.00 93.00
C 149.70 85.16 151.31 73.50 143.00 70.00
C 142.62 77.19 141.27 84.06 140.00 91.00 Z"/>
</g>
<g fill="#141315" fill-opacity="1.00" stroke="None">
<path d="
M 48.00 124.00 
C 55.48 133.10 59.36 127.43 59.00 118.00
C 58.20 101.30 51.81 86.18 46.00 71.00
C 31.31 84.10 36.40 109.88 48.00 124.00 Z"/>
</g>
<g fill="#F5CA65" fill-opacity="1.00" stroke="None">
<path d="
M 150.00 93.00 
C 150.00 94.64 150.15 96.37 150.00 98.00
C 150.54 103.04 151.26 109.59 152.00 115.00
C 148.41 116.02 146.02 119.11 147.00 123.00
C 149.96 120.26 156.03 120.96 159.00 117.00
C 164.11 102.82 163.00 93.16 163.00 78.00
C 161.18 82.94 151.61 87.95 150.00 93.00 Z"/>
</g>
<g fill="#8B8588" fill-opacity="1.00" stroke="None">
<path d="
M 123.00 127.00 
C 123.90 133.22 132.19 140.95 131.00 148.00
C 134.10 144.65 138.52 140.70 142.00 138.00
C 144.00 134.34 145.90 127.20 147.00 123.00
C 146.02 119.11 148.41 116.02 152.00 115.00
C 151.26 109.59 150.54 103.04 150.00 98.00
C 146.56 109.94 142.95 124.60 131.00 131.00
C 134.34 117.81 137.54 104.45 140.00 91.00
C 137.70 90.38 135.27 90.60 133.00 90.00
C 132.71 89.92 131.10 89.33 131.00 89.00
C 128.32 101.31 126.88 115.05 123.00 127.00 Z"/>
</g>
<g fill="#121113" fill-opacity="1.00" stroke="None">
<path d="
M 94.00 109.00 
C 92.28 114.15 91.44 119.75 90.00 125.00
C 88.53 130.34 84.00 139.89 90.03 141.97 C 96.06 144.05 105.80 142.82 106.92 135.92 C 108.05 129.02 103.42 122.43 102.00 116.00
C 101.31 112.87 100.97 110.07 100.00 107.00
C 99.32 104.91 99.39 101.97 97.00 101.00
C 96.84 103.97 94.91 106.28 94.00 109.00 Z"/>
</g>
<g fill="#667185" fill-opacity="1.00" stroke="None">
<path d="
M 107.00 105.00 
C 106.00 106.82 102.18 107.77 101.00 107.00
C 101.00 107.00 100.04 107.13 100.00 107.00
C 100.97 110.07 101.31 112.87 102.00 116.00
C 111.66 118.33 113.90 130.13 116.98 138.02 C 120.05 145.92 128.79 160.04 114.00 161.00
C 114.29 164.24 115.76 169.63 120.00 169.00
C 122.60 161.67 125.52 153.93 131.00 148.00
C 132.19 140.95 123.90 133.22 123.00 127.00
C 121.13 128.99 121.03 134.08 117.00 134.00
C 113.90 123.60 109.53 113.22 107.00 103.00
C 107.02 103.50 107.21 104.62 107.00 105.00 Z"/>
</g>
<g fill="#8790B6" fill-opacity="1.00" stroke="None">
<path d="
M 101.00 107.00 
C 102.18 107.77 106.00 106.82 107.00 105.00
C 105.08 106.02 102.78 105.56 101.00 107.00 Z"/>
</g>
<g fill="#677186" fill-opacity="1.00" stroke="None">
<path d="
M 87.00 110.00 
C 84.89 115.72 82.19 121.99 80.00 128.00
C 82.79 127.69 88.04 127.14 90.00 125.00
C 91.44 119.75 92.28 114.15 94.00 109.00
C 92.48 110.12 88.43 109.00 87.00 110.00 Z"/>
</g>
<g fill="#898589" fill-opacity="1.00" stroke="None">
<path d="
M 59.00 118.00 
C 59.36 127.43 55.48 133.10 48.00 124.00
C 45.31 123.71 43.38 127.23 41.00 128.00
C 43.53 131.65 45.85 133.41 49.00 136.00
C 55.18 136.56 56.24 131.46 62.69 130.69 C 69.15 129.93 68.00 121.31 68.00 116.00
C 68.00 116.00 68.08 115.49 68.00 115.00
C 64.26 114.74 62.58 118.16 59.00 118.00 Z"/>
</g>
<g fill="#667186" fill-opacity="1.00" stroke="None">
<path d="
M 49.00 136.00 
C 52.58 138.94 54.69 141.80 59.00 144.00
C 59.39 140.39 65.81 140.13 64.77 135.77 C 63.73 131.41 70.16 129.12 71.00 127.00
C 69.97 123.27 70.46 119.03 68.00 116.00
C 68.00 121.31 69.15 129.93 62.69 130.69 C 56.24 131.46 55.18 136.56 49.00 136.00 Z"/>
</g>
<g fill="#424D74" fill-opacity="1.00" stroke="None">
<path d="
M 90.00 125.00 
C 88.04 127.14 82.79 127.69 80.00 128.00
C 79.45 130.84 78.42 133.45 77.00 136.00
C 73.83 134.30 71.82 129.99 71.00 127.00
C 70.16 129.12 63.73 131.41 64.77 135.77 C 65.81 140.13 59.39 140.39 59.00 144.00
C 70.39 147.79 69.54 162.66 77.00 170.00
C 79.84 162.40 79.90 151.34 91.00 153.00 C 102.10 154.66 110.37 148.70 114.00 161.00
C 128.79 160.04 120.05 145.92 116.98 138.02 C 113.90 130.13 111.66 118.33 102.00 116.00
C 103.42 122.43 108.05 129.02 106.92 135.92 C 105.80 142.82 96.06 144.05 90.03 141.97 C 84.00 139.89 88.53 130.34 90.00 125.00 Z"/>
</g>
<g fill="#ED9F52" fill-opacity="1.00" stroke="None">
<path d="
M 147.00 123.00 
C 145.90 127.20 144.00 134.34 142.00 138.00
C 150.03 131.79 155.51 126.69 159.00 117.00
C 156.03 120.96 149.96 120.26 147.00 123.00 Z"/>
</g>
</svg>